<?xml version="1.0" ?><svg id="Layer_1" style="enable-background:new 0 0 512 512;" version="1.1" viewBox="0 0 512 512" xml:space="preserve" xmlns="http://www.w3.org/2000/svg" xmlns:xlink="http://www.w3.org/1999/xlink"><style type="text/css">
	.st0{fill:url(#SVGID_1_);}
	.st1{fill:#00ADEF;}
</style><g><g><g><linearGradient gradientUnits="userSpaceOnUse" id="SVGID_1_" x1="152.1314" x2="359.8671" y1="76.0969" y2="435.9058"><stop offset="0" style="stop-color:#00ADEF"/><stop offset="1" style="stop-color:#6600E9"/></linearGradient><path class="st0" d="M256,463.8c-114.6,0-207.8-93.2-207.8-207.8c0-114.6,93.2-207.8,207.8-207.8S463.8,141.4,463.8,256     C463.8,370.6,370.6,463.8,256,463.8z M152.8,224.9c2.6,0.3,10.2,4.4,19.3,37.4l20.6,75.5l0.1,0.2c11,29.4,25.2,44.3,42.3,44.3     c25.8,0,55.8-22.7,91.8-69.4c34.4-44.3,51.7-78.5,52.9-104.6c0.9-19.9-3.1-34.7-11.8-44.1c-7.1-7.6-17.2-11.7-30-12.1     c-1,0-2,0-3,0c-36,0-60.8,21.3-73.6,63.3l-3.2,10.3l9.9-4.3c5.8-2.5,11.5-3.8,16.9-3.8c4.6,0,7.8,1.1,9.7,3.2     c2.3,2.5,3.1,6.9,2.4,13.1c-0.7,8-6.2,20.2-16.4,36.3c-14.4,22.7-19.6,22.9-19.8,22.9c-0.1,0-6.4-0.4-14-35l0-0.2     c-1.9-7.3-5.3-26.8-10.2-57.9c-4.7-29.9-17.5-45-37.9-45c-1.3,0-2.7,0.1-4,0.2c-9.5,0.9-22.8,8.7-40.5,24.1l-0.1,0.1     c-12.2,11.1-24.7,22.2-37.1,33.1l-3.5,3.1l17.8,22.9l3.9-2.7C147.7,227.3,151.6,225.3,152.8,224.9z"/><path class="st1" d="M256,53.2c27.4,0,53.9,5.4,78.9,15.9c24.1,10.2,45.8,24.8,64.5,43.5c18.6,18.6,33.2,40.3,43.5,64.5     c10.6,25,15.9,51.5,15.9,78.9c0,27.4-5.4,53.9-15.9,78.9c-10.2,24.1-24.8,45.8-43.5,64.5c-18.6,18.6-40.3,33.2-64.5,43.5     c-25,10.6-51.5,15.9-78.9,15.9s-53.9-5.4-78.9-15.9c-24.1-10.2-45.8-24.8-64.5-43.5c-18.6-18.6-33.2-40.3-43.5-64.5     c-10.6-25-15.9-51.5-15.9-78.9c0-27.4,5.4-53.9,15.9-78.9c10.2-24.1,24.8-45.8,43.5-64.5c18.6-18.6,40.3-33.2,64.5-43.5     C202.1,58.6,228.6,53.2,256,53.2 M250.3,234.7l19.8-8.5c5.2-2.2,10.2-3.4,14.9-3.4c3,0,5.2,0.5,6,1.5c0.5,0.5,1.9,2.6,1.2,9.3     l0,0.1l0,0.1c-0.4,4.9-3.5,14.8-15.6,33.9c-7.7,12.1-12.4,17.3-14.8,19.4c-1.9-3-5.6-10.8-9.8-29.8l0-0.2l0-0.2     c-1.8-7.2-5.2-26.5-10.1-57.5c-6.4-40.7-26.9-49.2-42.9-49.2c-1.5,0-3,0.1-4.5,0.2c-10.8,1-24.5,9-43.3,25.2l-0.1,0.1l-0.1,0.1     c-12.2,11.1-24.7,22.2-37,33l-7.1,6.2l5.8,7.4l12,15.4l5.8,7.5l7.8-5.5c8.3-5.8,12.6-8.4,14.7-9.6c2.1,1.9,7.7,8.9,14.5,33.2     l0.1,0.5c6.8,24.9,13.6,49.8,20.4,74.8l0.1,0.4l0.2,0.4c5.6,15.1,11.9,26.2,19.1,34.1c8.2,9,17.6,13.5,27.9,13.5     c27.5,0,58.8-23.3,95.7-71.3c35.1-45.2,52.7-80.3,54-107.5c1-21.2-3.5-37.3-13.1-47.7c-8-8.6-19.3-13.2-33.5-13.7     c-1.1,0-2.1-0.1-3.1-0.1c-38.5,0-64.9,22.5-78.4,66.9L250.3,234.7 M256,43.2C138.5,43.2,43.2,138.5,43.2,256     c0,117.5,95.3,212.8,212.8,212.8S468.8,373.5,468.8,256C468.8,138.5,373.5,43.2,256,43.2L256,43.2z M266.1,217     c12.2-39.9,35.1-59.8,68.9-59.8c0.9,0,1.9,0,2.8,0c26.1,0.8,38.5,17.7,37,50.9c-1.1,24.8-18.4,58.7-51.9,101.8     c-34.6,45-63.9,67.5-87.8,67.5c-14.8,0-27.4-13.7-37.6-41.1c-6.8-25.1-13.7-50.2-20.5-75.3c-7.6-27.4-15.8-41.1-24.5-41.1     c-1.9,0-8.6,4-20,12l-12-15.4c12.6-11,25-22.1,37.1-33.1c16.8-14.5,29.3-22.1,37.7-22.9c1.2-0.1,2.4-0.2,3.6-0.2     c17.7,0,28.7,13.6,33,40.8c4.9,31.3,8.4,50.7,10.3,58.4c5.7,26,12,38.9,18.9,38.9c5.3,0,13.3-8.4,24-25.2     c10.7-16.8,16.4-29.6,17.1-38.4c1.5-14.5-4.2-21.8-17.1-21.8C278.9,212.8,272.6,214.2,266.1,217L266.1,217z"/></g></g></g></svg>