<?xml version="1.0" encoding="iso-8859-1"?>
<!-- Generator: Adobe Illustrator 19.0.0, SVG Export Plug-In . SVG Version: 6.00 Build 0)  -->
<svg version="1.1" id="Capa_1" xmlns="http://www.w3.org/2000/svg" xmlns:xlink="http://www.w3.org/1999/xlink" x="0px" y="0px"
	 viewBox="0 0 408 408" style="enable-background:new 0 0 408 408;" xml:space="preserve">
<g>
	<g>
		<path d="M249,150h-89c-5.5,0-10,4.5-10,10v190c0,5.5,4.5,10,10,10h89c5.5,0,10-4.5,10-10V160C259,154.5,254.5,150,249,150z
			 M238,340h-68V170h68V340z"/>
	</g>
</g>
<g>
	<g>
		<path d="M398,48h-89c-5.5,0-10,4.5-10,10v292c0,5.5,4.5,10,10,10h89c5.5,0,10-4.5,10-10V58C408,52.5,403.5,48,398,48z M388,340
			h-69V68h69V340z"/>
	</g>
</g>
<g>
	<g>
		<path d="M99,220H10c-5.5,0-10,4.5-10,10v120c0,5.5,4.5,10,10,10h89c5.5,0,10-4.5,10-10V230C109,224.5,104.5,220,99,220z M89,340
			H20V240h69V340z"/>
	</g>
</g>
<g>
</g>
<g>
</g>
<g>
</g>
<g>
</g>
<g>
</g>
<g>
</g>
<g>
</g>
<g>
</g>
<g>
</g>
<g>
</g>
<g>
</g>
<g>
</g>
<g>
</g>
<g>
</g>
<g>
</g>
</svg>
